<svg xmlns="http://www.w3.org/2000/svg" xmlns:xlink="http://www.w3.org/1999/xlink" width="200" zoomAndPan="magnify" viewBox="0 0 1440 809.999993" height="200" preserveAspectRatio="xMidYMid meet" version="1.0"><path stroke-linecap="round" transform="matrix(0.678331, 0, 0, 0.678331, 847.234644, 425.315207)" fill-opacity="1" fill="#fb5397" fill-rule="nonzero" stroke-linejoin="round" d="M 172.424154 -299.774625 C 172.424154 -299.774625 152.332334 82.004493 152.332334 82.004493 C 152.332334 82.004493 -172.424946 299.772404 -172.424946 299.772404 C -172.424946 299.772404 -172.424946 -95.038468 -172.424946 -95.038468 C -172.424946 -95.038468 172.424154 -299.774625 172.424154 -299.774625 Z M 172.424154 -299.774625 " stroke="#983ff7" stroke-width="5" stroke-opacity="1" stroke-miterlimit="4"/><path stroke-linecap="round" transform="matrix(0.678331, 0, 0, 0.678331, 613.314935, 425.315207)" fill-opacity="1" fill="#fb5397" fill-rule="nonzero" stroke-linejoin="round" d="M -172.422381 -299.774625 C -172.422381 -299.774625 -152.330562 82.004493 -152.330562 82.004493 C -152.330562 82.004493 172.420959 299.772404 172.420959 299.772404 C 172.420959 299.772404 172.420959 -95.038468 172.420959 -95.038468 C 172.420959 -95.038468 -172.422381 -299.774625 -172.422381 -299.774625 Z M -172.422381 -299.774625 " stroke="#983ff7" stroke-width="5" stroke-opacity="1" stroke-miterlimit="4"/><path stroke-linecap="round" transform="matrix(0.678331, 0, 0, 0.678331, 730.274849, 228.60124)" fill-opacity="1" fill="#fb5397" fill-rule="nonzero" stroke-linejoin="round" d="M -344.845422 -9.777658 C -344.845422 -9.777658 -0.00208155 -194.963306 -0.00208155 -194.963306 C -0.00208155 -194.963306 344.847018 -9.777658 344.847018 -9.777658 C 344.847018 -9.777658 -0.00208155 194.958499 -0.00208155 194.958499 C -0.00208155 194.958499 -344.845422 -9.777658 -344.845422 -9.777658 Z M -344.845422 -9.777658 " stroke="#983ff7" stroke-width="5" stroke-opacity="1" stroke-miterlimit="4"/><path stroke-linecap="round" transform="matrix(0.678331, 0, 0, 0.678331, 575.310793, 397.228915)" fill="none" stroke-linejoin="round" d="M 6.15272 192.115556 C 6.15272 192.115556 -6.153447 -192.110975 -6.153447 -192.110975 " stroke="#983ff7" stroke-width="5" stroke-opacity="1" stroke-miterlimit="4"/><path stroke-linecap="round" transform="matrix(0.684307, 0, 0, 0.678331, 651.479205, 445.061446)" fill="none" stroke-linejoin="round" d="M -4.444941 -195.751158 C -4.444941 -195.751158 4.448634 195.748508 4.448634 195.748508 " stroke="#983ff7" stroke-width="5" stroke-opacity="1" stroke-miterlimit="4"/><path stroke-linecap="round" transform="matrix(0.678331, 0, 0, 0.678331, 615.691151, 383.346855)" fill="none" stroke-linejoin="round" d="M -168.917175 -104.771121 C -168.917175 -104.771121 168.917927 104.773483 168.917927 104.773483 " stroke="#983ff7" stroke-width="5" stroke-opacity="1" stroke-miterlimit="4"/><path stroke-linecap="round" transform="matrix(0.678331, 0, 0, 0.678331, 618.015791, 470.97914)" fill="none" stroke-linejoin="round" d="M -165.491418 -103.745309 C -165.491418 -103.745309 165.490928 103.749226 165.490928 103.749226 " stroke="#983ff7" stroke-width="5" stroke-opacity="1" stroke-miterlimit="4"/><path stroke-linecap="round" transform="matrix(0.678331, 0, 0, 0.678331, 885.239602, 397.228915)" fill="none" stroke-linejoin="round" d="M -6.152151 192.115556 C -6.152151 192.115556 6.154016 -192.110975 6.154016 -192.110975 " stroke="#983ff7" stroke-width="5" stroke-opacity="1" stroke-miterlimit="4"/><path stroke-linecap="round" transform="matrix(0.678331, 0, 0, 0.678331, 809.070446, 445.061446)" fill="none" stroke-linejoin="round" d="M 4.445457 -195.751158 C 4.445457 -195.751158 -4.445849 195.748508 -4.445849 195.748508 " stroke="#983ff7" stroke-width="5" stroke-opacity="1" stroke-miterlimit="4"/><path stroke-linecap="round" transform="matrix(0.678331, 0, 0, 0.678331, 844.858548, 383.346855)" fill="none" stroke-linejoin="round" d="M 168.918771 -104.771121 C 168.918771 -104.771121 -168.916331 104.773483 -168.916331 104.773483 " stroke="#983ff7" stroke-width="5" stroke-opacity="1" stroke-miterlimit="4"/><path stroke-linecap="round" transform="matrix(0.678331, 0, 0, 0.678331, 842.533908, 470.97914)" fill="none" stroke-linejoin="round" d="M 165.493014 -103.745309 C 165.493014 -103.745309 -165.495091 103.749226 -165.495091 103.749226 " stroke="#983ff7" stroke-width="5" stroke-opacity="1" stroke-miterlimit="4"/><path stroke-linecap="round" transform="matrix(0.678331, 0, 0, 0.678331, 695.786467, 244.803171)" fill="none" stroke-linejoin="round" d="M -171.453276 -99.472137 C -171.453276 -99.472137 171.44941 99.47085 171.44941 99.47085 " stroke="#983ff7" stroke-width="5" stroke-opacity="1" stroke-miterlimit="4"/><path stroke-linecap="round" transform="matrix(0.678331, 0, 0, 0.678331, 772.872687, 201.487671)" fill="none" stroke-linejoin="round" d="M -171.804968 -96.450198 C -171.804968 -96.450198 171.806028 96.451998 171.806028 96.451998 " stroke="#983ff7" stroke-width="5" stroke-opacity="1" stroke-miterlimit="4"/><path stroke-linecap="round" transform="matrix(0.678331, 0, 0, 0.678331, 687.67766, 201.487671)" fill="none" stroke-linejoin="round" d="M 171.805608 -96.450198 C 171.805608 -96.450198 -171.805388 96.451998 -171.805388 96.451998 " stroke="#983ff7" stroke-width="5" stroke-opacity="1" stroke-miterlimit="4"/><path stroke-linecap="round" transform="matrix(0.678331, 0, 0, 0.678331, 764.763952, 244.803171)" fill="none" stroke-linejoin="round" d="M 171.45381 -99.472137 C 171.45381 -99.472137 -171.448876 99.47085 -171.448876 99.47085 " stroke="#983ff7" stroke-width="5" stroke-opacity="1" stroke-miterlimit="4"/></svg>